<svg width="120" height="120" viewBox="0 0 120 120" fill="none" xmlns="http://www.w3.org/2000/svg">
<path d="M54.9 21C60.3676 21 64.8 16.5676 64.8 11.1C64.8 5.63233 60.3676 1.19995 54.9 1.19995C49.4324 1.19995 45 5.63233 45 11.1C45 16.5676 49.4324 21 54.9 21Z" fill="#374151"/>
<path d="M78.9913 76.8L64.8097 37.8312L64.7281 37.4304C64.7281 36.8616 65.2057 36.4008 65.8009 36.4008C66.3073 36.4008 66.7321 36.7392 66.8449 37.1904L76.4857 62.4C77.1265 63.8424 79.7617 64.8 81.4945 64.8C83.8105 64.8 84.0505 60.252 84.0001 60L74.3593 35.1432C73.5217 29.5728 67.8961 24 61.4761 24H48.9121C42.4921 24 36.4489 29.5728 35.6113 35.1432L26.4025 60C26.1937 60.4776 26.4025 64.8 28.9057 64.8C30.8521 64.8 33.4417 64.1208 33.9145 62.4L43.2145 37.0824C43.2939 36.8797 43.4331 36.7059 43.6135 36.5842C43.794 36.4624 44.0072 36.3985 44.2249 36.4008C44.8177 36.4008 45.2953 36.8616 45.2953 37.428L45.2281 37.7952L31.4113 76.8C31.3849 76.9152 31.4113 79.0824 31.4113 79.2C31.4113 80.0304 33.4153 81.6 34.2865 81.6H43.2001V113.028C43.2001 115.524 45.3985 117.6 48.0001 117.6C50.6017 117.6 52.8001 115.522 52.8001 113.028V81.5784C52.8001 80.8992 57.6001 80.9208 57.6001 81.6V112.8C57.6001 115.296 59.8009 117.6 62.4001 117.6C65.0065 117.6 67.2001 115.294 67.2001 112.8V81.6H76.4857C77.3545 81.6 78.9913 80.0304 78.9913 79.2C78.9913 79.008 79.0609 76.9656 78.9913 76.8Z" fill="#374151"/>
</svg>
