<svg width="44" height="114" viewBox="0 0 44 114" fill="none" xmlns="http://www.w3.org/2000/svg">
<path d="M14.0193 113.195C12.2149 112.603 10.7861 111.271 10.378 109.802C10.2153 109.216 10.1378 97.2383 10.137 72.5533L10.1357 36.1677H8.30744V49.9026C8.30744 63.3671 8.29809 63.6538 7.83492 64.4683C7.23499 65.5232 6.56105 66.0175 5.24247 66.3701C3.29283 66.8914 1.16059 65.896 0.394946 64.1069C-0.0976532 62.9558 -0.0656043 32.2541 0.430303 30.3509C1.54792 26.0611 5.16719 22.5465 9.38845 21.6522C11.612 21.1811 32.1707 21.1753 34.3878 21.6451C36.6461 22.1237 38.5858 23.2062 40.3021 24.9458C42.0674 26.7351 42.8915 28.1866 43.5062 30.5894C43.9346 32.2643 43.9582 33.1612 43.9582 47.7499C43.9582 61.0856 43.9112 63.2556 43.6067 63.9843C43.1333 65.1172 42.646 65.6268 41.5586 66.1261C39.7543 66.9544 37.461 66.4214 36.3942 64.9259L35.8454 64.1567L35.7832 50.1622L35.7209 36.1677H33.9029V72.732C33.9029 112.813 33.9935 110.152 32.5768 111.644C31.4574 112.824 30.3162 113.269 28.4181 113.269C26.5202 113.269 25.3788 112.824 24.2596 111.645C22.8703 110.181 22.9334 111.315 22.9334 87.8118V66.3272H21.1052V87.8119C21.1052 105.32 21.0482 109.433 20.797 110.032C20.3366 111.13 19.335 112.213 18.2836 112.749C17.2703 113.266 14.9697 113.507 14.0192 113.195L14.0193 113.195ZM19.1597 19.0906C16.3971 18.1043 14.6896 16.5835 13.4809 14.0333C12.812 12.6217 12.7638 12.3506 12.7638 10.0018C12.7638 7.62532 12.8053 7.39943 13.5028 5.98296C16.9864 -1.09175 27.0437 -1.10909 30.5214 5.95365C31.2414 7.41596 31.2748 7.60024 31.2748 10.1161C31.2748 12.5355 31.2232 12.8536 30.636 14.0489C29.6497 16.057 28.1929 17.5213 26.203 18.5045C24.658 19.2679 24.2657 19.363 22.393 19.4277C20.8216 19.482 20.0222 19.3986 19.1597 19.0906Z" fill="#374151"/>
</svg>
